# xmcd CD database file
#
# Track frame offsets:
#	150
#	16853
#	30464
#	48512
#	66247
#	84044
#	98006
#	117479
#	132028
#	146594
#	167750
#	187794
#	202533
#	216248
#	229147
#	245644
#	260872
#	274573
#	287626
#	304906
#
# Disc length: 4246 seconds
#
# Revision: 0
# Processed by: cddbd v1.5.1PL0 Copyright (c) Steve Scherf et al.
# Submitted via: CDex 1.51
#
DISCID=13109414
DTITLE=Dimensión Latina - Una Dimensión De Exitos
DYEAR=1900
DGENRE=Salsa
TTITLE0=Llorarás
TTITLE1=Pensando En Ti
TTITLE2=El Frutero
TTITLE3=Taboga
TTITLE4=Pan De Piquito
TTITLE5=Julia
TTITLE6=Divina Niña
TTITLE7=Aprende Conmigo
TTITLE8=Parampampám
TTITLE9=Para Tu Altar
TTITLE10=Dolor Cobarde
TTITLE11=Que Bailen T'os
TTITLE12=Dormir Contigo
TTITLE13=La Piragua
TTITLE14=Sin Tu Cariño
TTITLE15=Josefa Matía
TTITLE16=Vuelta Y Vuelta
TTITLE17=Si Tú Supieras
TTITLE18=Sigue Tu Camino
TTITLE19=Dame Tu Querer
EXTD=
EXTT0=
EXTT1=
EXTT2=
EXTT3=
EXTT4=
EXTT5=
EXTT6=
EXTT7=
EXTT8=
EXTT9=
EXTT10=
EXTT11=
EXTT12=
EXTT13=
EXTT14=
EXTT15=
EXTT16=
EXTT17=
EXTT18=
EXTT19=
PLAYORDER=
